<svg id="eca11d76-cc41-405e-9529-a8b25f3bd5b0" data-name="레이어 2"
	xmlns="http://www.w3.org/2000/svg" viewBox="0 0 269.76129 115.33301">
	<path d="M268.40735,79.73656H197.62178a11.01812,11.01812,0,0,0-8.62572,2.05374,10.57434,10.57434,0,0,0-3.55981,5.47664v35.46547a9.46358,9.46358,0,0,0,8.62572,8.34765h58.60069v16.70879H185.43613V164.762l81.05441-.00055a4.89534,4.89534,0,0,0,1.69522-.79625,5.00033,5.00033,0,0,0,1.69489-2.24643V117.6158a7.87237,7.87237,0,0,0-1.82694-1.97237,8.25954,8.25954,0,0,0-4.80225-1.62934l-57.37-.17151q-.04287-8.27535-.08575-16.55069l62.42955.1715Q268.31627,88.6,268.40735,79.73656Z" transform="translate(-0.11938 -77.3335)" style="fill:#FFFFFF"/>
	<path d="M177.97722,147.77551H111.25567V97.15523h66.995v-17.465H103.88791c-.57784-.10942-5.86264-1.01837-9.82272,2.72938a11.065,11.065,0,0,0-3.27461,6.54923v67.67594a9.47794,9.47794,0,0,0,3.13817,5.73,9.24452,9.24452,0,0,0,4.36616,2.04665h79.546Z" transform="translate(-0.11938 -77.3335)" style="fill:#FFFFFF"/>
	<rect x="68.58512" y="104.70562" width="5.49511" height="5.63784" style="fill:#FFFFFF"/>
	<rect x="91.1365" y="104.70562" width="5.70921" height="5.63784" style="fill:#FFFFFF"/>
	<rect x="102.69765" y="104.70562" width="4.92419" height="2.81892" style="fill:#FFFFFF"/>
	<rect x="124.15655" y="104.70562" width="4.83757" height="2.74756" style="fill:#FFFFFF"/>
	<rect x="183.69127" y="104.68517" width="4.95056" height="5.71808" style="fill:#FFFFFF"/>
	<rect x="216.06164" y="104.68517" width="5.80051" height="5.71808" style="fill:#FFFFFF"/>
	<path d="M20.18884,173.747V117.67322l67.3869,51.64685V79.79883H66.671l.246,49.1875L.11938,77.3335v115.333h269.7613V173.747Zm45.23285,15.78552H64.0658l-6.13746-5.35242v5.35242H55.07379v-9.49158h1.64136l5.99469,5.56647v-5.56647h2.71185Zm10.91889,0H66.63489v-9.49158h9.70569Zm11.77526-7.49335H80.337v5.63782h7.7788v1.85553H77.33966v-9.49158H88.11584Zm10.562,7.49335H88.97217v-9.49158h9.70569Zm11.77526-2.71191-7.7788-.07135v2.78326H99.89105v-9.49158h10.56207Zm6.88593-2.74427v5.45618h-2.82953v-5.30664l-3.74231-3.80054,1.5517-1.506,3.24029,3.11987h.77582l3.05768-3.11987,1.59735,1.4148Zm14.69525,5.65906h-2.87518V187.773l-.9812-.9812h-3.99323v2.9436h-2.87518v-9.69446H132.0343Zm3.92481,0H133.084v-9.69446h2.87513Zm10.72485-7.69623H138.9256V187.773h5.84155v-2.00806h-2.92078v-1.91681H146.684v5.88727h-9.67517v-9.69446H146.684Zm11.77448,7.69623h-2.87519v-3.97046h-5.02014l.04565,3.97046H147.688v-9.69446h2.92077v3.7616h4.92884v-3.7616h2.92084Zm10.67913-7.69623h-3.9248v7.69623h-2.78388v-7.69623H159.3255v-1.99823h9.81207Zm10.83612-.16644h-7.82995v1.99066h7.82995v5.872h-9.75427v-1.99017h7.86316v-1.92432h-7.86316v-5.78h9.75427Zm11.7425,7.86267H180.93243v-9.69446h10.78376Zm10.707,0h-9.786v-9.69446h2.07232l-.03839,7.69587H200.466l.07679-7.69587h1.88043Zm10.66864-.15655H211.48l-6.06348-5.56458v5.72113h-2.34094v-9.69446h1.38153l6.79261,5.93055v-5.93055h1.8421Zm10.83941.15655h-9.7v-9.69446s4.85,0,7.18927-.02392c2.3393-.024,2.51074,2.51068,2.51074,2.51068Zm10.62616-7.71667H226.8559v1.87384h7.70153v5.84283h-9.65124v-1.99859h7.84772v-1.89447h-7.84772v-5.8014l9.65124-.02392Z" transform="translate(-0.11938 -77.3335)" style="fill:#FFFFFF"/>
</svg>